<?xml version="1.0" encoding="utf-8"?>
<!-- Designed by Vexels.com - 2017 All Rights Reserved - https://vexels.com/terms-and-conditions/  -->

<svg version="1.1" id="Layer_1" xmlns="http://www.w3.org/2000/svg" xmlns:xlink="http://www.w3.org/1999/xlink" x="0px" y="0px"
	 width="1200px" height="1200px" viewBox="0 0 1200 1200" enable-background="new 0 0 1200 1200" xml:space="preserve">
<g>
	<g>
		<path fill="#262524" d="M571.942,576.864c0,0-8.285,0-12.229,13.965c-3.907,13.984-10.021,37.989-20.08,49.766
			c-10.04,11.795-41.462,71.147-44.519,79.885c-3.057,8.719-3.926,11.343-3.926,11.343s46.709,6.548,67.675,23.137
			c20.948,16.589,36.216,30.554,26.61,45.406c7.87,2.19,0.869,8.738,7.87,2.19c6.982-6.549,11.776-13.116,11.776-13.116
			s6.115,0.452-3.038,13.984c-9.172,13.531-16.173,23.138-16.173,24.439c0,1.302,10.926,20.929,23.59,31.837
			c12.644,10.927,34.498,42.802,34.498,42.802s27.044-26.628,35.781-32.328c8.738-5.661,13.965-5.661,18.778-9.152
			c4.794-3.492,51.067-44.085,64.618-61.109c13.512-17.041,51.049-83.829,65.882-139.709
			c-16.135-3.907-234.41-94.286-242.714-92.983C578.038,568.541,571.942,576.864,571.942,576.864z"/>
		<path fill="#E7C6A5" d="M499.794,731.785c0,0-9.172,24.439-11.795,37.536c-2.604,13.098-15.702,40.179-20.947,44.105
			c-5.247,3.925-18.325,8.285-27.063,13.965c-8.738,5.681-6.568,38.858-6.114,42.349c0.434,3.491,7.417,14.399,13.531,17.022
			c6.114,2.623,9.172,10.908,17.476,9.607c8.285-1.322,17.909-3.775,20.08-3.34c2.19,0.434,21.382-14.57,37.537-25.912
			c16.154-11.361,24.439-25.76,30.119-31.856c5.681-6.114,25.326-25.76,43.218-38.423c6.548-34.046-67.675-69.865-81.641-69.431
			c-13.965,0.453-15.721,4.417-15.721,4.417"/>
		<path fill="#E7C6A5" d="M585.908,827.863c-0.869-0.321-6.983,6.077-11.777,20.042c-4.794,13.965-13.531,26.195-16.155,28.818
			c-2.623,2.604-6.982,19.646-8.285,21.381c-1.321,1.756-2.208,29.252,11.777,37.99c13.984,8.738,29.251,11.795,32.742,9.605
			c3.492-2.188,22.269-13.531,22.269-13.531s19.646-18.343,30.12-33.629C657.074,883.271,600.325,833.147,585.908,827.863z"/>
		<path fill="#A8927B" d="M449.16,883.818c3.227-2.434,20.269-8.134,23.496-18.646c3.246-10.549,0-16.211,3.246-15.418
			c3.246,0.812,12.153,11.361,22.703,4.869c10.53-6.491,13.777-8.115,13.777-17.834c0-9.719,57.201-77.79,68.053-72.091
			c11.795,6.209,26.062,22.345,11.795,34.725c-4.775,4.151-58.145,52.804-61.372,57.673c-3.246,4.851-38.179,26.138-45.35,35.347
			C471.845,892.726,449.16,883.818,449.16,883.818z"/>
		<path fill="#A8927B" d="M571.565,930.829c-1.642-1.963,8.115-19.457,7.285-21.892c-0.792-2.434,5.681-9.719,10.55-2.434
			c4.85,7.303,4.85,10.55,11.361,10.55c6.473,0,11.323,6.473,17.815,0.792c6.492-5.661,8.926-14.569,10.549-17.815
			c1.623-3.247,0.812-7.304-3.246-8.927c-4.057-1.622-3.247-10.53-23.515-12.154c-4.039-0.321-11.342-4.057-4.039-6.491
			c7.285-2.435,8.096,0,8.096-6.492c0-6.473-0.812-11.343-1.623-13.758c-0.811-2.453,12.984,5.662,21.081,14.57
			c8.115,8.926,26.742,25.137,26.742,25.137s-24.459,30.233-36.141,40.254C601.552,938.944,575.622,935.698,571.565,930.829z"/>
		<path stroke="#000000" stroke-width="0.1717" stroke-miterlimit="10" d="M586.039,763.452
			c-1.981-3.36,20.533-12.342,27.063-17.456c6.568-5.096,3.643-10.908-3.623-13.815c-7.285-2.906-2.906-7.285,9.474-6.549
			c12.361,0.736,25.458,8.003,8.002-8.738c-17.476-16.739-22.571-29.818-4.378-16.739c18.193,13.098,36.385,37.838,18.91-2.906
			c-17.456-40.745-15.286-66.939-4.36-39.292c10.927,27.648,18.911-2.17,17.457-8.002c-1.453-5.831,3.642-9.455,15.286,8.719
			c11.644,18.211,2.907,23.307,36.385,25.477c33.48,2.189-24.024,15.267,0.736,22.552c24.742,7.285,66.204,16.739,27.647,14.569
			c-38.575-2.19-67.675-18.193-37.839,8.719c29.837,26.93,30.554,32.026,40.009,39.292c9.456,7.285-27.647-14.55-46.557-32.007
			c-18.929-17.476-25.477-24.024-14.551-6.548c10.908,17.456,26.912,56.031,22.534,51.653c-4.36-4.36-11.626-32.743-30.555-41.481
			c3.643,5.831,13.117,21.118,10.927,32.762c-2.19,11.644-3.642-23.288-16.003-27.666c-12.399-4.36-16.022-14.551-16.022,3.642
			c0,18.193,19.646,57.484,8.738,41.481c-10.909-16.004-14.551-28.384-20.364-23.289c-5.831,5.096-7.303-2.17-7.303,9.455
			c0,11.664,4.378,18.194-3.623,13.117c-8.003-5.096-8.738-3.661-9.455,2.906c-0.736,6.549-11.871,8.248-11.871,8.248
			s6.605-10.21,3.057-13.966l-11.059,8.116C591.795,792.798,596.212,780.928,586.039,763.452z"/>
		<g>
			<path fill="#E7C6A5" d="M506.984,268.361c2.321,3.015-59.674-5.095-98.966,0.731c-39.292,5.827-86.585,26.199-103.32,16.004
				c-16.754-10.178-61.141-33.465-66.222-37.108c-5.105-3.633-9.464-8.001-17.485,1.458c-7.982,9.45-5.817,12.361-4.345,16.73
				c1.448,4.374,0,18.197,0,18.197l-19.659,10.918c0,0-4.355,10.196,4.368,6.544c8.728-3.638,24.732-7.271,24.732-7.271l13.838,4.36
				l-2.185,10.918c0,0-21.83,11.644-24.024,11.644c-2.175,0-5.082,10.908,1.458,9.455c6.553-1.453,21.839-7.285,29.11-10.927
				c7.275-3.623,13.101-1.434,13.101-1.434s4.369,27.647,44.378,6.548c13.838,2.906,88.799,11.625,112.803,12.361
				c24.006,0.736,53.842-1.453,69.129-4.36c15.287-2.925,44.388-8.002,44.388-8.002L506.984,268.361z"/>
			<path fill="#A8927B" d="M314.149,313.484c0,0-31.29-2.915-32.022-0.735c-0.727,2.189-8.738,3.642-8.738,3.642
				s-13.819-10.903-14.556-18.193c-0.722-7.275-0.722-7.275-0.722-7.275s-21.099-2.916-24.005-2.916
				c-2.921,0-11.644-2.892-9.464-16.003c-5.827,0-5.827,0-5.827,0l-3.642,17.461c0,0,0,8.002-8.723,10.196
				c16.735-4.369,16.735-4.369,16.735-4.369l13.828,3.633c0,0,2.185,1.458,1.463,5.086c7.266-2.175,13.083-2.175,18.184,4.378
				c5.095,6.548,7.27,18.91,18.197,14.551C285.77,318.58,301.764,310.578,314.149,313.484z"/>
			<path fill="#A8927B" d="M249.375,269.092c0,0-10.177-13.093-16.72-13.093c-7.204,0-2.199,9.46-2.199,9.46
				S233.381,270.55,249.375,269.092z"/>
		</g>
		<path fill="#6DB6E5" d="M714.691,199.789c0,0-0.453-0.018-1.303-0.038c-4.604-0.108-20.287-0.16-31.007,3.525
			c-12.663,4.373-28.818,6.114-48.01,4.373c-19.212-1.745-33.177,12.659-54.559,23.552c-21.401,10.927-50.219,23.585-56.767,27.516
			c-6.53,3.92-11.342,4.798-11.342,6.973c0,2.198,5.246,33.176,17.456,44.547c12.211,11.324,19.212,14.399,19.212,14.399
			s39.707,2.17,51.936,20.514c12.248,18.325,27.515,38.405,27.95,45.368c0.434,7.002-5.681,6.115-4.794,17.476
			c0.868,11.342,0.434,11.776-0.434,25.742c-0.887,13.965,6.095,32.762-7.002,45.406c-13.097,12.682-27.497,39.726-33.611,60.674
			c-6.114,20.947-13.531,37.102-13.531,37.102s33.177-0.868,49.332,18.778c16.155,19.646,98.229,67.656,187.721,73.77
			c30.12,0.435,48.879-0.868,46.709-0.868c-2.189,0,24.006-37.537,12.644-79.433c-11.342-41.915-13.078-60.258-7.417-72.922
			c5.662-12.663,17.91-72.469,23.138-88.189c5.227-15.721,4.359-32.29,4.359-32.29s4.379,12.21,9.625,12.21
			c5.228,0,6.096,1.756,6.096,1.756s68.978-38.839,67.222-39.273c-1.736-0.434-19.627-27.063-20.947-37.555
			c-1.303-10.474-19.646-44.948-33.612-60.216c-13.965-15.282-58.051-50.205-64.165-54.574c-6.114-4.368-20.08-10.918-34.064-15.276
			C808.976,215.057,714.691,199.789,714.691,199.789z"/>
		<path fill="#1B1A19" d="M739.13,414.092v-17.91c0,0-0.869-12.663-14.834-13.097c0,0-16.589-1.756-16.589,20.533
			c-1.736,17.456,11.343,20.06,21.816,20.514c-0.868,9.153-0.434,12.211-0.434,12.211s-1.302,4.378-7.851,4.378
			c-6.548,0-13.098,0-13.098,0v9.172h24.439c0,0,6.983-2.189,6.983-26.213h4.378v-8.285L739.13,414.092z M728.656,413.639h-11.342
			V394.88l11.342-0.887V413.639z"/>
		<path fill="#FFFFFF" d="M501.04,266.087c0,0-9.739,22.693,2.416,37.287c12.172,14.592,23.533,19.452,23.533,19.452l17.816,1.623
			c0,0-35.669-25.94-27.554-61.617C511.57,262.832,501.04,266.087,501.04,266.087z"/>
		<path opacity="0.3" d="M626.332,384.764c0,0,10.908,10.908,21.816,38.555c10.926,27.667,23.288,46.576,41.48,56.032l0,0
			c18.193,9.473,24.025,14.569,24.025,14.569s-9.474-0.736-21.118-5.831c-11.625-5.096-36.385-15.268-42.198-42.198
			c-5.831-26.93-13.097-53.862-18.193-45.124c-5.095,8.738-10.172,4.36-2.906,18.929c7.266,14.551,0.718,18.193,13.834,36.386
			c13.078,18.173,9.435,25.458,2.17,13.814c-7.285-11.643-16.739-32.742-18.193-41.48c-1.453-8.719-3.586-20.42-3.586-20.42
			S632.144,399.315,626.332,384.764z"/>
		<path opacity="0.3" d="M500.436,296.004c-0.359-2.6,15.286-2.916,15.286-2.916s10.191-9.469,32.007,4.369
			c21.835,13.828,24.741,13.828,31.29,18.188c6.568,4.368,17.456,18.919,27.666,38.565c-18.928-24.006-24.741-25.459-45.123-27.647
			c-20.381-2.171-34.573-3.737-34.573-3.737S502.625,312.012,500.436,296.004z"/>
		<path opacity="0.3" d="M611.762,330.922c-3.151-0.717,61.127,37.838,120.065,51.672
			C747.114,385.501,640.146,337.49,611.762,330.922z"/>
		<path opacity="0.3" d="M784.216,277.811c-2.17,0.731-53.106,24.747-65.486,16.004c-7.927-5.591-4.36-2.902,10.209-2.175
			C743.49,292.362,784.216,277.811,784.216,277.811z"/>
		<path opacity="0.3" d="M624.86,481.54c6.756-2.699-4.378,14.551,28.384,21.816c32.743,7.285,48.746,8.021,58.938,11.664
			c7.077,2.509,21.515,15.908,32.593,27.76c4.907,5.227,9.134,10.153,11.795,13.701c0,0,9.455,19.646-5.813,3.642
			c-15.286-16.003-25.459-34.932-48.03-40.745c-22.552-5.831-82.245-1.453-55.296,2.906c26.912,4.378,48.747,3.643,54.559,8.002
			c5.831,4.379,24.742,10.908-22.552,4.379c-47.293-6.549-50.935-18.212-56.748-13.117c-5.831,5.114-32.026-13.097,1.453,16.74
			c33.46,29.837,44.368,42.934,85.868,53.144c41.462,10.172,56.749,14.55,59.654,24.723c2.906,10.19,2.19,0-19.646-8.003
			c-21.834-8.002-77.866-7.285-91.68-23.288c-13.834-16.004-42.934-41.481-50.955-51.672c-7.983-10.172-17.438-15.268-6.53-18.173
			c10.908-2.926,14.551-3.643,16.74-3.643c2.17,0-2.906-13.833-2.906-13.833S617.594,484.447,624.86,481.54z"/>
		<path opacity="0.3" d="M765.306,513.547c-37.632-13.946,54.578,43.671,56.031,66.222c1.453,22.552-16.74,15.287-11.644,20.382
			c5.096,5.077,26.931,9.455,23.289-1.453c-3.643-10.926-16.004-37.121-18.929-45.123
			C811.146,545.574,784.952,520.832,765.306,513.547z"/>
		<path opacity="0.3" d="M797.313,509.188c20.363,19.004,41.48,54.579,43.65,72.035c2.19,17.476,4.379,0-1.452-23.288
			c-5.813-23.269-46.558-68.393-54.559-90.228c-8.003-21.816-6.568-13.834-2.19,2.189c4.378,16.004,21.099,36.386,9.474,29.102
			C780.592,491.713,775.497,488.825,797.313,509.188z"/>
		<path fill="#E7C6A5" d="M711.596,154.024c0,0,3.076,16.528,0.905,26.128c-2.189,9.61,1.756,22.269,1.756,22.269
			s-8.738,7.427-9.173,26.194c-0.434,18.773,10.04,42.335,53.258,40.17c30.572-2.623,53.257-38.848,62.862-58.065
			c-4.378-3.939-7.851-8.728-5.681-17.027c2.19-6.114,2.19-6.114,2.19-6.114l1.755-4.369c0,0,7.851,1.321,10.474-9.162
			c2.604-10.474,3.473-20.519,3.473-20.519s-23.572-27.944-24.006-29.251c-0.434-1.303-56.296-20.953-56.296-20.953
			s-36.687,15.277-36.687,16.589C716.427,121.22,710.237,138.37,711.596,154.024z"/>
		<path d="M783.555,50.35c0,0-31.705-5.142-54.823,23.986c-23.137,29.134-18.004,34.277-18.854,43.708
			c-0.868,9.422,1.718,35.979,1.718,35.979s-1.718-11.993,4.265-19.702c6.02-7.71,8.568-16.277,18.852-15.423
			c10.286,0.849,11.135,15.423,20.572,15.423c9.417,0,13.701-10.291,20.571-6.001c6.85,4.288,12.833,10.29,25.703,6.859
			c5.134,7.71,0.849,20.561,6.851,23.982c8.568,6,3.435,23.991,3.435,23.991l8.059-6.931c0,0-0.359-19.623,8.209-19.623
			c6.001-0.859,6.001-0.859,6.001-0.859s0.848-25.703,3.434-38.56c2.567-12.856-4.283-20.561-4.283-20.561
			S823.828,52.926,783.555,50.35z"/>
		<path fill="#3B3328" d="M718.182,152.651c-0.415,1.326-0.868-16.589,15.721-4.359c6.095,2.184,9.152,6.543,10.908,9.162
			c1.736,2.628,4.435,8.577,4.435,8.577l-10.116-1.586c0,0,0.434,5.237-6.114,4.365c-6.549-0.873-8.286-3.052-8.286-3.052
			s6.983,0.873,11.343,0c1.755-2.623,3.491-3.936,3.491-3.936s-7.851-3.925-8.285-6.548
			C730.846,152.651,720.805,143.918,718.182,152.651z"/>
		<path fill="#3B3328" d="M762.267,172.297c0,0,0.075-8.011,3.077-9.601c7.077-3.789,4.794-3.057,6.53-3.487
			c1.755-0.439,14.852-2.188,20.08-2.188c5.246,0,4.812,4.368,4.812,4.368s-10.474-0.444-10.927,1.746
			c-0.435,2.185-6.096,1.745-7.851,2.185c-1.756,0.439-3.926,3.491-3.926,3.491s2.17,3.052,5.681,3.93
			c3.473,0.873,12.644,0.43,12.644,0.43s-4.36,3.935-9.606,3.935c-5.228,0-9.606-3.935-9.606-3.935S770.571,168.372,762.267,172.297
			z"/>
		<path fill="#3B3328" d="M738.697,200.681c0,0,8.699,13.258,13.059,15.886c-4.397-0.694-6.888-0.524-6.888-0.524l-10.964,0.128
			c0,0-4.379-6.313-4.379-3.704c0,2.614,0.887,3.93,3.057,4.368c2.19,0.434,3.152,2.095,6.643,2.534
			c3.473,0.434,7.455,0.075,7.455,0.075s13.721,2.067,16.778,2.505c3.057,0.443,11.474-2.057,11.474-2.057s-6.605,0.18-10.097-1.132
			c-3.491-1.302-7.378-7.167-5.624-8.039c1.755-0.873,9.172-0.429,11.795-8.299c-1.755-1.741-1.755-1.741-1.755-1.741
			s-6.549,8.728-14.4,7.846C746.981,207.664,738.697,200.681,738.697,200.681z"/>
		<path fill="#3B3328" d="M792.954,256.255c2.133-3.651,5.265-6.6,8.889-8.705c0.038-0.047,0.057-0.09,0.113-0.136
			c0.491-2.831,1.831-5.492,3.661-7.856c-10.342,4.987-17.589,2.632-22.551,1.349c0.207-0.038,0.377-0.01,0.585-0.066
			c7.435-6.114,13.55-20.948,17.042-31.432c-7.87,18.773-22.269,30.559-22.269,30.559s-1.661,1.109-2.189,1.756
			c-4.473,5.468-12.21,9.162-21.382,9.162c-9.172,0-27.062-6.548-33.177-24.448c-0.717-2.105,3.926,18.772,12.23,24.448
			c3.925,6.106,5.227,15.716,13.078,17.462c7.869,1.74,18.136-2.242,25.326-4.374c8.379-2.486,15.003-4.756,20.287-6.874
			C792.708,256.811,792.821,256.533,792.954,256.255z"/>
		<path fill="#FFFFFF" d="M710.313,199.341c0,0-14.834,16.589-13.966,36.673c0.869,20.075,18.325,37.536,48.464,38.848
			c6.114,0,32.742,2.619,55.88-22.694c23.137-25.326,24.873-45.845,24.873-45.845l-8.738-3.925c0,0,2.642,13.97-10.89,31.86
			c-13.55,17.91-31.441,38.863-65.939,33.187c-14.399-2.614-35.348-12.659-34.479-41.033c0.868-10.926,8.738-23.991,8.738-23.991
			S713.822,199.341,710.313,199.341z"/>
		<path fill="#FFFFFF" d="M746.547,218.058c0,0,2.038,3.401,5.774,3.401c3.699,0,5.568-1.09,5.568-1.09
			S751.662,218.237,746.547,218.058z"/>
		<path fill="#E3E3E3" d="M563.223,669.469c0,0,8.719-19.08,0-24.477c-10.851-6.718-14.702-0.529-18.268,2.793
			c-6.039,5.643-8.87,18.193-6.455,20.891c2.34,2.642,5.057,4.077,7.794,4.68c2.68,0.585,2.68,0.585,2.68,0.585
			s-0.755,7.87-1.944,8.399c-1.17,0.566-18.57-4.077-18.57-4.077l-2.509,8.87c0,0,21.759,4.586,22.873,4.396
			c1.132-0.169,8.643,0.756,11.039-12.417c5.795-0.699,5.795-0.699,5.795-0.699l2.038-7.02L563.223,669.469z M555.014,662.467
			c-1.831,6.228-5.964,3.586-5.964,3.586c-3.982-1.075-1.717-10.379,0.151-12.531c3.605-4.113,6.039-1,7.587-0.565
			C558.317,653.39,557.317,654.711,555.014,662.467z"/>
		<path fill="#A8927B" d="M500.436,296.004c0,0,9.7-4.256-38.179,14.498c-47.859,18.76-124.839,14.891-131.935,10.343
			c-7.115-4.51-26.539-4.51-26.539-4.51s-8.407,1.943,17.48,7.115c25.873,5.17,80.848,12.286,103.476,13.569
			c22.646,1.302,102.249-14.192,102.249-14.192S505.626,306.086,500.436,296.004z"/>
		<path fill="#A8927B" d="M860.629,457.535c0,0,12.757,8.983,24.628,9.833c11.87,0.849-11.021-1.699-0.849-11.889
			C873.386,454.629,860.629,457.535,860.629,457.535z"/>
		<path opacity="0.3" d="M746.981,268.347c-2.114-0.458,10.946,6.784,23.533,8.36c12.588,1.571,6.473-2.921,16.287-12.993
			c18.06-18.485,12.267-21.614,12.267-21.614S771.308,273.551,746.981,268.347z"/>
		<g>
			<path fill="#1C2F53" d="M220.845,1097.998c0,0-0.877,10.474,2.619,11.361c3.478,0.869,5.223-1.755,5.223-1.755L220.845,1097.998z
				"/>
			<path fill="#1C2F53" d="M237.859,1111.529c0,0-1.303,9.153,3.94,8.738c5.232-0.434,7.416-5.227,7.416-5.227L237.859,1111.529z"/>
			<path fill="#1C2F53" d="M258.826,1112.851c-0.882,3.038-1.321,6.095,3.92,2.604c5.242-3.491,6.993-7.398,6.993-7.398
				L258.826,1112.851z"/>
		</g>
		<path fill="#262524" d="M440.988,822.598c0,0-14.418,37.971,1.736,51.502c16.155,13.55,42.783,18.343,42.783,18.343
			s-10.908,35.329-33.592,49.747c-22.722,14.4-24.459,11.343-48.917,33.593c-24.439,22.289-55.862,75.526-59.353,78.583
			c-3.51,3.077-7.435,4.378-7.87,5.681c-0.434,1.321-10.039,7.417-22.708-9.587c-12.658-17.041-13.53-33.629-13.53-33.629
			s18.782-16.155,28.822-41.047c10.039-24.873,32.309-69.827,48.463-88.171C392.978,869.269,405.188,828.712,440.988,822.598z"/>
		<path fill="#32528E" d="M296.928,1016.357c0,0-38.867,23.572-51.516,29.252c-12.664,5.661-34.942,26.194-30.13,41.046
			c4.798,14.834,12.234,25.76,24.015,28.365c11.785,2.623,20.523,4.812,32.313-5.662c11.767-10.474,24.435-22.703,42.349-31.441
			c17.891-8.738,23.572-16.589,23.572-18.325c0-1.755-11.777-1.321-11.777-1.321S303.906,1016.792,296.928,1016.357z"/>
		<path fill="#6DB6E5" d="M368.104,897.595c0,0-1.642,38.103,17.834,47.822c19.457,9.738,56.73,3.247,56.73,3.247
			s-29.176,13.777-43.783,31.629c-13.777,0.812-59.165-10.55-51.88-42.991C351.875,924.337,368.104,897.595,368.104,897.595z"/>
		<g>
			<linearGradient id="SVGID_1_" gradientUnits="userSpaceOnUse" x1="206.8339" y1="1127.2606" x2="495.452" y2="880.7976">
				<stop  offset="0" style="stop-color:#A72F06"/>
				<stop  offset="0.6121" style="stop-color:#E63B11"/>
				<stop  offset="1" style="stop-color:#FDD08F"/>
			</linearGradient>
			<path fill="url(#SVGID_1_)" d="M299.538,1016.83c0,0,25.33,3.453,27.52,24.854c0.434,9.587,1.302,11.343-0.887,12.664
				c-2.17,1.302-2.17,7.851-6.548,7.416c-4.36-0.434-24.439,8.738-41.905,12.664c-17.462,3.925-13.541,7.851-20.081,0.868
				c-6.553-6.982-13.097-9.606-3.057-15.702c10.035-6.115,19.636-14.852,27.497-26.214
				C289.941,1022.038,299.538,1016.83,299.538,1016.83z"/>
			<path d="M294.041,1039.816c-0.745,0.056-3.623,0.529-4.458,1.547c-1.203-0.547-2.406-1.057-3.676-1.472
				c-1.01-0.34-7.115,1.057-5.789,2.434c0.797,0.831,1.519,1.68,2.283,2.529c-1.925-0.169-6.19,1.095-5.605,2.227
				c1.448,2.906,2.548,5.794,3.445,8.7c-1.618-1.963-3.327-3.85-5.232-5.681c-1.005-0.981-6.653,0.359-6.384,2
				c0.458,2.869,1.232,5.549,2.142,8.153c-1.416-0.962-2.907-1.849-4.543-2.623c-1.062-0.509-6.879,0.151-6.374,2.019
				c0.198,0.736,0.358,1.434,0.524,2.133c-1.179-1.378-2.373-2.774-3.562-4.152c-0.972-1.132-6.455,0.396-6.384,2.019
				c0.152,3.039,0.43,6.077,0.722,9.116c-2.052,0.434-4.383,1.717-3.661,2.434c1.383,1.396,2.789,2.774,4.199,4.133
				c0.995,1.34,6.671,0.057,6.582-1.755c-0.09-1.755-0.27-3.51-0.444-5.265c1.368,1.604,2.736,3.17,4.09,4.756
				c1.01,1.17,6.36-0.416,6.388-2.001c0.043-2.113-0.108-4.057-0.382-5.944c2.835,2.34,5.515,4.888,8.435,7.322
				c0.874,0.736,5.252-0.283,6.204-1.378c1.052,1.302,6.412-0.245,6.455-1.887c0.09-4.378-0.358-8.417-1.321-12.38
				c2.501,2.283,4.972,4.586,7.487,6.869c1,0.906,7.006-0.66,6.378-2.019c-0.354-0.755-0.764-1.434-1.141-2.17
				c1.948,0.132,6.1-1.038,5.534-2.208c-2.019-4.284-4.887-7.908-8.37-10.851c-0.406-1.057-0.784-2.171-1.095-3.34
				c4.648,1.245,8.407,4.604,10.417,9.02c0.764,1.699,7.148-0.528,6.577-1.755C309.983,1042.646,302.17,1039.212,294.041,1039.816z"
				/>
		</g>
		<path fill="#262524" d="M549.692,895.482c-0.075-1.586-20.08,23.552-39.292,37.102c-19.193,13.531-41.046,54.126-43.651,57.617
			c-2.623,3.491,8.738,85.132,8.738,85.132s38.858-28.818,61.542-44.972c22.703-16.154,68.109-58.484,74.224-70.279
			c6.114-11.776,5.227-27.912,5.227-27.912s-20.947,6.964-35.801-0.018C565.847,925.149,550.56,912.504,549.692,895.482z"/>
		<path fill="#1C2F53" d="M380.314,1113.719c0,0-14.399,13.965-11.342,23.137c3.057,9.153-2.623,11.343,9.605,12.664
			c12.211,1.302,61.127-0.453,61.127-0.453s2.604-8.719-2.208-26.61C426.589,1107.604,380.314,1113.719,380.314,1113.719z"/>
		<path fill="#6DB6E5" d="M503.456,938.114c0,2.434-1.605,21.911,0.83,42.991c2.434,21.061,18.646,42.953,51.067,33.215
			c-11.342,13.777-30.799,25.138-30.799,25.138s-24.325-2.435-36.479-15.4c-12.173-12.965-7.304-57.56-7.304-57.56L503.456,938.114z
			"/>
		<g>
			<path fill="#E0BA65" d="M782.951,297.09l44.18,11.45l-2.51,23.439c0,0-1.622,22.533-25.307,28.12
				c-23.722-13.268-20.137-35.121-19.911-36.838C779.63,321.562,782.951,297.09,782.951,297.09z"/>
			<path fill="#1B1517" d="M786.103,301.926l37.593,9.407l-2.264,20.854c0,0-1.491,20.004-21.76,24.93
				c-19.891-11.644-16.815-30.743-16.646-32.252C783.216,323.374,786.103,301.926,786.103,301.926z"/>
			<path fill="#E3E3E3" d="M787.103,303.402l35.499,8.799l-2.152,19.929c0,0-1.453,19.117-20.628,23.779
				c-18.702-11.078-15.795-29.233-15.626-30.668C784.367,323.827,787.103,303.402,787.103,303.402z"/>
			
				<polygon fill="#E0BA65" stroke="#000000" stroke-width="0.0423" stroke-linecap="round" stroke-linejoin="round" stroke-miterlimit="10" points="
				792.368,305.341 793.237,307.785 795.69,308.351 793.5,309.767 794.029,312.559 791.746,310.578 789.028,311.408 
				790.312,308.936 788.461,306.596 790.991,307.256 			"/>
			
				<polygon fill="#E0BA65" stroke="#000000" stroke-width="0.0423" stroke-linecap="round" stroke-linejoin="round" stroke-miterlimit="10" points="
				801.201,307.502 802.031,309.917 804.428,310.446 802.295,311.852 802.805,314.588 800.616,312.644 797.993,313.466 
				799.238,311.068 797.482,308.767 799.898,309.389 			"/>
			
				<polygon fill="#E0BA65" stroke="#000000" stroke-width="0.0423" stroke-linecap="round" stroke-linejoin="round" stroke-miterlimit="10" points="
				809.712,309.597 810.505,311.955 812.788,312.465 810.75,313.862 811.259,316.541 809.127,314.636 806.636,315.466 
				807.825,313.088 806.107,310.862 808.448,311.456 			"/>
			
				<polygon fill="#E0BA65" stroke="#000000" stroke-width="0.0423" stroke-linecap="round" stroke-linejoin="round" stroke-miterlimit="10" points="
				817.374,311.493 818.148,313.805 820.356,314.296 818.393,315.664 818.865,318.297 816.827,316.438 814.411,317.259 
				815.562,314.928 813.902,312.729 816.148,313.333 			"/>
			<polygon fill="#1C1615" points="798.351,314.277 794.199,350.851 800.484,349.605 806.277,352.569 810.41,316.938 
				804.428,317.825 			"/>
			<polygon fill="#C8B048" points="798.955,315.372 795.067,349.756 800.616,348.662 805.654,351.474 809.618,317.731 
				804.333,318.675 			"/>
			<g>
				<g>
					<path fill="#142E68" d="M795.086,326.884c0.151-0.114,0.17-0.359,0.018-0.566c-0.131-0.17-0.377-0.208-0.565-0.075
						c0,0-0.812,0.585-1.718,0.585l0.132-1.057c1.245,0.095,2.283-0.698,2.34-0.717c0.17-0.132,0.188-0.396,0.038-0.585
						c-0.132-0.152-0.396-0.208-0.566-0.095c0,0.018-0.812,0.604-1.717,0.585l0.49-4.02c0.019-0.226-0.151-0.434-0.359-0.472
						c-0.226-0.057-0.434,0.095-0.452,0.302l-0.491,4.001c-0.717-0.378-1.132-1.095-1.152-1.113
						c-0.113-0.189-0.358-0.283-0.566-0.189c-0.188,0.095-0.245,0.34-0.151,0.548c0.038,0.038,0.661,1.132,1.774,1.547l-0.132,1.057
						c-0.698-0.358-1.132-1.075-1.151-1.075c-0.113-0.208-0.358-0.302-0.566-0.208c-0.188,0.113-0.264,0.34-0.151,0.566
						c0.018,0.019,0.642,1.095,1.755,1.548l-0.113,1.038c-0.699-0.359-1.132-1.057-1.151-1.076
						c-0.114-0.207-0.359-0.301-0.566-0.188c-0.189,0.075-0.265,0.34-0.132,0.548c0.018,0.056,0.622,1.113,1.755,1.566l-0.131,1.038
						c-0.699-0.358-1.133-1.075-1.152-1.095c-0.113-0.188-0.358-0.283-0.566-0.188c-0.208,0.094-0.264,0.339-0.151,0.547
						c0.038,0.057,0.661,1.132,1.774,1.548l-0.113,1.038c-0.736-0.34-1.17-1.038-1.17-1.057c-0.113-0.208-0.358-0.283-0.586-0.208
						c-0.169,0.114-0.245,0.358-0.131,0.566c0.018,0.057,0.66,1.114,1.792,1.548l-1.113,9.247c-0.038,0.227,0.131,0.453,0.358,0.491
						c0.226,0.038,0.415-0.113,0.453-0.34l1.094-9.247c1.265,0.075,2.322-0.699,2.36-0.736c0.17-0.151,0.188-0.396,0.038-0.566
						c-0.132-0.189-0.378-0.244-0.566-0.094c0,0-0.83,0.585-1.717,0.585l0.113-1.056c1.264,0.075,2.321-0.718,2.359-0.736
						c0.17-0.132,0.189-0.378,0.038-0.566c-0.151-0.188-0.377-0.227-0.566-0.095c-0.018,0-0.83,0.604-1.717,0.604l0.113-1.075
						c1.265,0.075,2.303-0.699,2.34-0.736c0.188-0.132,0.208-0.377,0.057-0.566c-0.152-0.17-0.397-0.208-0.586-0.094
						c0,0-0.792,0.604-1.717,0.604l0.132-1.057C793.973,327.714,795.029,326.922,795.086,326.884z"/>
					<path fill="#142E68" d="M790.425,343.396c-0.586-0.094-1-0.604-0.944-1.169l1.075-8.814c-1.056-0.604-1.604-1.566-1.642-1.622
						c-0.113-0.245-0.188-0.529-0.113-0.793c0.075-0.244,0.264-0.472,0.509-0.585c0.038-0.019,0.095-0.038,0.152-0.057
						c-0.208-0.245-0.283-0.434-0.321-0.452c-0.132-0.245-0.17-0.529-0.114-0.793c0.076-0.245,0.265-0.452,0.51-0.566
						c0.038-0.038,0.094-0.056,0.131-0.075c-0.188-0.245-0.301-0.434-0.301-0.453c-0.132-0.226-0.17-0.528-0.113-0.773
						c0.094-0.265,0.264-0.473,0.509-0.566c0.038-0.057,0.113-0.057,0.17-0.075c-0.208-0.265-0.34-0.435-0.34-0.453
						c-0.131-0.245-0.169-0.529-0.094-0.792c0.075-0.245,0.245-0.453,0.471-0.566c0.057-0.019,0.113-0.057,0.17-0.057
						c-0.189-0.264-0.302-0.453-0.321-0.472c-0.132-0.245-0.17-0.51-0.095-0.774c0.057-0.264,0.226-0.472,0.472-0.585
						c0.51-0.227,1.152,0.018,1.435,0.509l0,0c0,0,0.038,0.056,0.113,0.17l0.359-2.944c0.075-0.548,0.585-0.897,1.132-0.784
						c0.585,0.123,0.982,0.671,0.905,1.217l-0.377,3.133c0.358-0.17,0.622-0.321,0.622-0.321c0.378-0.301,1.076-0.188,1.416,0.245
						c0.358,0.453,0.321,1.095-0.113,1.416c-0.019,0.018-0.17,0.113-0.34,0.226c0.095,0.057,0.17,0.132,0.227,0.208
						c0.377,0.453,0.321,1.095-0.095,1.434c-0.056,0.019-0.17,0.095-0.358,0.208c0.095,0.057,0.17,0.132,0.245,0.208
						c0.339,0.453,0.301,1.095-0.113,1.435c-0.057,0.018-0.17,0.094-0.359,0.207c0.094,0.057,0.188,0.132,0.245,0.227
						c0.359,0.453,0.302,1.095-0.114,1.416c-0.038,0.018-0.151,0.113-0.339,0.226c0.094,0.057,0.17,0.132,0.226,0.226
						c0.378,0.435,0.321,1.076-0.113,1.416c-0.113,0.075-1,0.736-2.19,0.849l-1.038,8.738
						C791.5,343.113,790.991,343.491,790.425,343.396z"/>
				</g>
				<path fill="#FCCB7C" d="M795.086,326.884c0.151-0.114,0.17-0.359,0.018-0.566c-0.131-0.17-0.377-0.208-0.565-0.075
					c0,0-0.812,0.585-1.718,0.585l0.132-1.057c1.245,0.095,2.283-0.698,2.34-0.717c0.17-0.132,0.188-0.396,0.038-0.585
					c-0.132-0.152-0.396-0.208-0.566-0.095c0,0.018-0.812,0.604-1.717,0.585l0.49-4.02c0.019-0.226-0.151-0.434-0.359-0.472
					c-0.226-0.057-0.434,0.095-0.452,0.302l-0.491,4.001c-0.717-0.378-1.132-1.095-1.152-1.113
					c-0.113-0.189-0.358-0.283-0.566-0.189c-0.188,0.095-0.245,0.34-0.151,0.548c0.038,0.038,0.661,1.132,1.774,1.547l-0.132,1.057
					c-0.698-0.358-1.132-1.075-1.151-1.075c-0.113-0.208-0.358-0.302-0.566-0.208c-0.188,0.113-0.264,0.34-0.151,0.566
					c0.018,0.019,0.642,1.095,1.755,1.548l-0.113,1.038c-0.699-0.359-1.132-1.057-1.151-1.076c-0.114-0.207-0.359-0.301-0.566-0.188
					c-0.189,0.075-0.265,0.34-0.132,0.548c0.018,0.056,0.622,1.113,1.755,1.566l-0.131,1.038c-0.699-0.358-1.133-1.075-1.152-1.095
					c-0.113-0.188-0.358-0.283-0.566-0.188c-0.208,0.094-0.264,0.339-0.151,0.547c0.038,0.057,0.661,1.132,1.774,1.548l-0.113,1.038
					c-0.736-0.34-1.17-1.038-1.17-1.057c-0.113-0.208-0.358-0.283-0.586-0.208c-0.169,0.114-0.245,0.358-0.131,0.566
					c0.018,0.057,0.66,1.114,1.792,1.548l-1.113,9.247c-0.038,0.227,0.131,0.453,0.358,0.491c0.226,0.038,0.415-0.113,0.453-0.34
					l1.094-9.247c1.265,0.075,2.322-0.699,2.36-0.736c0.17-0.151,0.188-0.396,0.038-0.566c-0.132-0.189-0.378-0.244-0.566-0.094
					c0,0-0.83,0.585-1.717,0.585l0.113-1.056c1.264,0.075,2.321-0.718,2.359-0.736c0.17-0.132,0.189-0.378,0.038-0.566
					c-0.151-0.188-0.377-0.227-0.566-0.095c-0.018,0-0.83,0.604-1.717,0.604l0.113-1.075c1.265,0.075,2.303-0.699,2.34-0.736
					c0.188-0.132,0.208-0.377,0.057-0.566c-0.152-0.17-0.397-0.208-0.586-0.094c0,0-0.792,0.604-1.717,0.604l0.132-1.057
					C793.973,327.714,795.029,326.922,795.086,326.884z"/>
			</g>
			<g>
				<g>
					<path fill="#142E68" d="M815.053,330.884c0.17-0.131,0.17-0.377,0.057-0.547c-0.132-0.17-0.378-0.208-0.529-0.075
						c-0.019,0-0.736,0.566-1.566,0.566l0.113-1.019c1.151,0.075,2.095-0.679,2.133-0.699c0.151-0.131,0.188-0.377,0.038-0.547
						c-0.133-0.17-0.378-0.208-0.529-0.095c0,0.019-0.736,0.566-1.566,0.566l0.415-3.831c0.038-0.208-0.114-0.415-0.302-0.452
						c-0.208-0.057-0.377,0.075-0.415,0.283l-0.414,3.812c-0.661-0.321-1.038-1-1.038-1.019c-0.132-0.188-0.359-0.283-0.529-0.188
						c-0.189,0.113-0.245,0.339-0.152,0.529c0.019,0.056,0.586,1.056,1.623,1.472l-0.113,0.982
						c-0.661-0.321-1.038-0.982-1.057-1.019c-0.113-0.188-0.339-0.264-0.509-0.17c-0.188,0.095-0.245,0.321-0.132,0.51
						c0.019,0.056,0.586,1.075,1.604,1.491l-0.094,1c-0.661-0.34-1.057-1-1.077-1.038c-0.094-0.17-0.321-0.265-0.49-0.17
						c-0.208,0.075-0.265,0.339-0.17,0.509c0.056,0.057,0.622,1.057,1.642,1.473l-0.132,1.018c-0.642-0.339-1.018-1.018-1.038-1.038
						c-0.113-0.188-0.34-0.264-0.509-0.17c-0.189,0.095-0.245,0.34-0.152,0.529c0.019,0.038,0.586,1.057,1.623,1.473l-0.113,0.981
						c-0.661-0.321-1.038-0.981-1.057-1c-0.094-0.208-0.339-0.283-0.509-0.188c-0.188,0.094-0.265,0.321-0.151,0.529
						c0.018,0.056,0.585,1.056,1.622,1.472l-1,8.832c-0.018,0.226,0.132,0.434,0.34,0.472c0.208,0.018,0.396-0.132,0.415-0.34
						l1.001-8.813c1.131,0.038,2.094-0.717,2.133-0.755c0.151-0.113,0.169-0.358,0.056-0.529c-0.151-0.188-0.377-0.208-0.547-0.094
						c0,0-0.736,0.585-1.548,0.585l0.095-1c1.151,0.056,2.095-0.717,2.133-0.736c0.17-0.113,0.188-0.378,0.056-0.547
						c-0.151-0.17-0.377-0.208-0.528-0.075c-0.019,0-0.736,0.566-1.567,0.566l0.095-1.001c1.152,0.057,2.095-0.679,2.152-0.717
						c0.151-0.132,0.169-0.358,0.038-0.547c-0.133-0.17-0.359-0.208-0.529-0.075c0,0-0.736,0.566-1.548,0.566l0.114-1.001
						C814.071,331.658,815.015,330.904,815.053,330.884z"/>
					<path fill="#142E68" d="M810.863,346.699c-0.529-0.094-0.906-0.604-0.849-1.131l0.962-8.436
						c-0.962-0.547-1.472-1.491-1.509-1.529c-0.132-0.226-0.17-0.509-0.095-0.736c0.057-0.264,0.208-0.472,0.434-0.566
						c0.038-0.038,0.114-0.038,0.152-0.075c-0.189-0.245-0.283-0.396-0.302-0.415c-0.095-0.245-0.133-0.51-0.076-0.756
						c0.057-0.245,0.226-0.452,0.434-0.566c0.057-0.018,0.095-0.038,0.151-0.056c-0.188-0.227-0.283-0.396-0.301-0.434
						c-0.113-0.246-0.151-0.491-0.095-0.736c0.075-0.265,0.227-0.453,0.453-0.566c0.057-0.019,0.095-0.038,0.132-0.057
						c-0.17-0.245-0.283-0.415-0.283-0.434c-0.113-0.226-0.151-0.491-0.095-0.755c0.076-0.245,0.226-0.453,0.434-0.548
						c0.057-0.018,0.114-0.038,0.152-0.056c-0.17-0.245-0.283-0.415-0.283-0.434c-0.132-0.227-0.17-0.491-0.114-0.756
						c0.076-0.226,0.245-0.434,0.473-0.547c0.414-0.226,1.038-0.019,1.264,0.453l0,0c0,0,0.038,0.075,0.113,0.17l0.322-2.813
						c0.056-0.529,0.528-0.849,1.056-0.755c0.491,0.113,0.869,0.623,0.793,1.152l-0.321,2.981c0.321-0.113,0.565-0.301,0.565-0.301
						c0.359-0.283,0.963-0.17,1.284,0.226c0.339,0.435,0.283,1.039-0.095,1.34c-0.038,0.038-0.132,0.132-0.302,0.226
						c0.076,0.057,0.132,0.132,0.208,0.208c0.34,0.434,0.283,1.038-0.113,1.34c-0.018,0.038-0.132,0.113-0.301,0.226
						c0.113,0.057,0.169,0.114,0.226,0.208c0.321,0.434,0.264,1.038-0.113,1.359c-0.038,0.019-0.132,0.095-0.302,0.208
						c0.075,0.057,0.152,0.132,0.208,0.208c0.321,0.415,0.283,1.038-0.113,1.359c-0.019,0.019-0.132,0.114-0.302,0.208
						c0.095,0.057,0.152,0.132,0.227,0.208c0.339,0.434,0.283,1.038-0.113,1.359c-0.095,0.095-0.906,0.736-2.001,0.849l-0.925,8.342
						C811.863,346.397,811.372,346.756,810.863,346.699z"/>
				</g>
				<path fill="#FCCB7C" d="M815.053,330.884c0.17-0.131,0.17-0.377,0.057-0.547c-0.132-0.17-0.378-0.208-0.529-0.075
					c-0.019,0-0.736,0.566-1.566,0.566l0.113-1.019c1.151,0.075,2.095-0.679,2.133-0.699c0.151-0.131,0.188-0.377,0.038-0.547
					c-0.133-0.17-0.378-0.208-0.529-0.095c0,0.019-0.736,0.566-1.566,0.566l0.415-3.831c0.038-0.208-0.114-0.415-0.302-0.452
					c-0.208-0.057-0.377,0.075-0.415,0.283l-0.414,3.812c-0.661-0.321-1.038-1-1.038-1.019c-0.132-0.188-0.359-0.283-0.529-0.188
					c-0.189,0.113-0.245,0.339-0.152,0.529c0.019,0.056,0.586,1.056,1.623,1.472l-0.113,0.982c-0.661-0.321-1.038-0.982-1.057-1.019
					c-0.113-0.188-0.339-0.264-0.509-0.17c-0.188,0.095-0.245,0.321-0.132,0.51c0.019,0.056,0.586,1.075,1.604,1.491l-0.094,1
					c-0.661-0.34-1.057-1-1.077-1.038c-0.094-0.17-0.321-0.265-0.49-0.17c-0.208,0.075-0.265,0.339-0.17,0.509
					c0.056,0.057,0.622,1.057,1.642,1.473l-0.132,1.018c-0.642-0.339-1.018-1.018-1.038-1.038c-0.113-0.188-0.34-0.264-0.509-0.17
					c-0.189,0.095-0.245,0.34-0.152,0.529c0.019,0.038,0.586,1.057,1.623,1.473l-0.113,0.981c-0.661-0.321-1.038-0.981-1.057-1
					c-0.094-0.208-0.339-0.283-0.509-0.188c-0.188,0.094-0.265,0.321-0.151,0.529c0.018,0.056,0.585,1.056,1.622,1.472l-1,8.832
					c-0.018,0.226,0.132,0.434,0.34,0.472c0.208,0.018,0.396-0.132,0.415-0.34l1.001-8.813c1.131,0.038,2.094-0.717,2.133-0.755
					c0.151-0.113,0.169-0.358,0.056-0.529c-0.151-0.188-0.377-0.208-0.547-0.094c0,0-0.736,0.585-1.548,0.585l0.095-1
					c1.151,0.056,2.095-0.717,2.133-0.736c0.17-0.113,0.188-0.378,0.056-0.547c-0.151-0.17-0.377-0.208-0.528-0.075
					c-0.019,0-0.736,0.566-1.567,0.566l0.095-1.001c1.152,0.057,2.095-0.679,2.152-0.717c0.151-0.132,0.169-0.358,0.038-0.547
					c-0.133-0.17-0.359-0.208-0.529-0.075c0,0-0.736,0.566-1.548,0.566l0.114-1.001
					C814.071,331.658,815.015,330.904,815.053,330.884z"/>
			</g>
			<g>
				<path fill="#C11B20" d="M805.277,319.731l-2.246-0.472l-2.982,3.794l1.472,0.301l0.509-0.415l3.265,0.698l0.453,0.548
					l1.473,0.301L805.277,319.731z M802.692,322.015l1.17-1.529l0.963,2L802.692,322.015z"/>
				<path fill="#C11B20" d="M799.993,323.77c-0.038,0.264-0.396,3.416-0.396,3.416s-0.226,0.699,1.283,1
					c1.529,0.302,4.831,0.962,4.831,0.962s0.906,0.095,1-0.792c0.113-0.905,0.396-3.283,0.396-3.283l-1.887-0.397l-0.264,2.397
					c0,0-0.302,0.792-1.019,0.661c-0.699-0.152-1.491-0.302-1.491-0.302s-0.981-0.132-0.868-1.057
					c0.075-0.717,0.245-2.208,0.245-2.208L799.993,323.77z"/>
				<path fill="#C11B20" d="M798.804,333.092c0.018,0,0.471-4.095,0.471-4.095l7.209,1.416l-0.151,1.17l-5.058-0.982l-0.094,0.982
					l5.057,0.982l-0.113,1.151c0,0-5.001-0.944-5.077-0.944c-0.038,0.019-0.057,0.718-0.057,0.718L798.804,333.092z"/>
			</g>
			<g>
				<path fill="#FCCB7C" d="M795.086,326.884c0.151-0.114,0.17-0.359,0.018-0.566c-0.131-0.17-0.377-0.208-0.565-0.075
					c0,0-0.812,0.585-1.718,0.585l0.132-1.057c1.245,0.095,2.283-0.698,2.34-0.717c0.17-0.132,0.188-0.396,0.038-0.585
					c-0.132-0.152-0.396-0.208-0.566-0.095c0,0.018-0.812,0.604-1.717,0.585l0.49-4.02c0.019-0.226-0.151-0.434-0.359-0.472
					c-0.226-0.057-0.434,0.095-0.452,0.302l-0.491,4.001c-0.717-0.378-1.132-1.095-1.152-1.113
					c-0.113-0.189-0.358-0.283-0.566-0.189c-0.188,0.095-0.245,0.34-0.151,0.548c0.038,0.038,0.661,1.132,1.774,1.547l-0.132,1.057
					c-0.698-0.358-1.132-1.075-1.151-1.075c-0.113-0.208-0.358-0.302-0.566-0.208c-0.188,0.113-0.264,0.34-0.151,0.566
					c0.018,0.019,0.642,1.095,1.755,1.548l-0.113,1.038c-0.699-0.359-1.132-1.057-1.151-1.076c-0.114-0.207-0.359-0.301-0.566-0.188
					c-0.189,0.075-0.265,0.34-0.132,0.548c0.018,0.056,0.622,1.113,1.755,1.566l-0.131,1.038c-0.699-0.358-1.133-1.075-1.152-1.095
					c-0.113-0.188-0.358-0.283-0.566-0.188c-0.208,0.094-0.264,0.339-0.151,0.547c0.038,0.057,0.661,1.132,1.774,1.548l-0.113,1.038
					c-0.736-0.34-1.17-1.038-1.17-1.057c-0.113-0.208-0.358-0.283-0.586-0.208c-0.169,0.114-0.245,0.358-0.131,0.566
					c0.018,0.057,0.66,1.114,1.792,1.548l-1.113,9.247c-0.038,0.227,0.131,0.453,0.358,0.491c0.226,0.038,0.415-0.113,0.453-0.34
					l1.094-9.247c1.265,0.075,2.322-0.699,2.36-0.736c0.17-0.151,0.188-0.396,0.038-0.566c-0.132-0.189-0.378-0.244-0.566-0.094
					c0,0-0.83,0.585-1.717,0.585l0.113-1.056c1.264,0.075,2.321-0.718,2.359-0.736c0.17-0.132,0.189-0.378,0.038-0.566
					c-0.151-0.188-0.377-0.227-0.566-0.095c-0.018,0-0.83,0.604-1.717,0.604l0.113-1.075c1.265,0.075,2.303-0.699,2.34-0.736
					c0.188-0.132,0.208-0.377,0.057-0.566c-0.152-0.17-0.397-0.208-0.586-0.094c0,0-0.792,0.604-1.717,0.604l0.132-1.057
					C793.973,327.714,795.029,326.922,795.086,326.884z"/>
				<path fill="#FCCB7C" d="M815.053,330.884c0.17-0.131,0.17-0.377,0.057-0.547c-0.132-0.17-0.378-0.208-0.529-0.075
					c-0.019,0-0.736,0.566-1.566,0.566l0.113-1.019c1.151,0.075,2.095-0.679,2.133-0.699c0.151-0.131,0.188-0.377,0.038-0.547
					c-0.133-0.17-0.378-0.208-0.529-0.095c0,0.019-0.736,0.566-1.566,0.566l0.415-3.831c0.038-0.208-0.114-0.415-0.302-0.452
					c-0.208-0.057-0.377,0.075-0.415,0.283l-0.414,3.812c-0.661-0.321-1.038-1-1.038-1.019c-0.132-0.188-0.359-0.283-0.529-0.188
					c-0.189,0.113-0.245,0.339-0.152,0.529c0.019,0.056,0.586,1.056,1.623,1.472l-0.113,0.982c-0.661-0.321-1.038-0.982-1.057-1.019
					c-0.113-0.188-0.339-0.264-0.509-0.17c-0.188,0.095-0.245,0.321-0.132,0.51c0.019,0.056,0.586,1.075,1.604,1.491l-0.094,1
					c-0.661-0.34-1.057-1-1.077-1.038c-0.094-0.17-0.321-0.265-0.49-0.17c-0.208,0.075-0.265,0.339-0.17,0.509
					c0.056,0.057,0.622,1.057,1.642,1.473l-0.132,1.018c-0.642-0.339-1.018-1.018-1.038-1.038c-0.113-0.188-0.34-0.264-0.509-0.17
					c-0.189,0.095-0.245,0.34-0.152,0.529c0.019,0.038,0.586,1.057,1.623,1.473l-0.113,0.981c-0.661-0.321-1.038-0.981-1.057-1
					c-0.094-0.208-0.339-0.283-0.509-0.188c-0.188,0.094-0.265,0.321-0.151,0.529c0.018,0.056,0.585,1.056,1.622,1.472l-1,8.832
					c-0.018,0.226,0.132,0.434,0.34,0.472c0.208,0.018,0.396-0.132,0.415-0.34l1.001-8.813c1.131,0.038,2.094-0.717,2.133-0.755
					c0.151-0.113,0.169-0.358,0.056-0.529c-0.151-0.188-0.377-0.208-0.547-0.094c0,0-0.736,0.585-1.548,0.585l0.095-1
					c1.151,0.056,2.095-0.717,2.133-0.736c0.17-0.113,0.188-0.378,0.056-0.547c-0.151-0.17-0.377-0.208-0.528-0.075
					c-0.019,0-0.736,0.566-1.567,0.566l0.095-1.001c1.152,0.057,2.095-0.679,2.152-0.717c0.151-0.132,0.169-0.358,0.038-0.547
					c-0.133-0.17-0.359-0.208-0.529-0.075c0,0-0.736,0.566-1.548,0.566l0.114-1.001
					C814.071,331.658,815.015,330.904,815.053,330.884z"/>
			</g>
			<g>
				<polygon fill="#1B1517" points="814.92,343.869 787.519,339.245 788.443,331.658 815.714,336.716 				"/>
				<polygon fill="#F5FBFF" points="814.316,343.132 788.368,338.717 789.123,332.451 814.977,337.206 				"/>
				<g>
					<polygon fill="#142E68" points="814.751,338.641 788.99,333.979 789.085,333.244 814.827,337.943 					"/>
					<polygon fill="#142E68" points="814.6,339.887 788.821,335.319 788.915,334.583 814.675,339.207 					"/>
					<polygon fill="#142E68" points="814.468,341.17 788.669,336.659 788.764,335.923 814.544,340.453 					"/>
					<polygon fill="#142E68" points="814.336,342.434 788.5,338 788.594,337.244 814.392,341.736 					"/>
				</g>
			</g>
			<g>
				<path d="M805.994,342.038c0.302-2.529-1.472-4.887-3.982-5.34c-2.529-0.472-4.831,1.246-5.134,3.774
					c-0.301,2.566,1.529,4.964,4.096,5.36C803.484,346.247,805.73,344.529,805.994,342.038z"/>
				<path fill="#FFFFFF" d="M805.768,341.982c0.283-2.36-1.416-4.625-3.775-5.058c-2.396-0.415-4.586,1.189-4.869,3.605
					c-0.301,2.416,1.453,4.68,3.869,5.057C803.371,345.964,805.503,344.36,805.768,341.982z"/>
				<g>
					<path d="M804.994,340.98c0.547,0.435,0.755,1.51,0.755,1.51s0.661-1.227-0.528-3.378c0,0,0.038,0.925-0.226,1.453l-1.906,0.547
						l-1.264-1.245l0.056-2.17c0.661-0.378,2.246,0.188,2.114,0.095c-2.831-2.039-4.548-0.679-4.548-0.679s0.943-0.095,2.057,0.547
						l-0.095,2.113l-1.265,0.718l-1.792-1.019l0.245-2.038c-1.944,2.038-1.604,3.85-1.604,3.85l1.188-1.472l1.717,1l0.378,1.642
						l-0.83,0.83c-0.435,0-1.34,0-2.17-0.131c0.679,1.321,2.906,2.491,2.906,2.491l-0.415-2.095l0.868-0.887l1.623,0.226
						l0.981,1.227c-0.188,0.472-0.642,1.529-1.151,1.774c1.095-0.227,2.34-0.756,2.963-1.661c-0.414,0.018-1.056-0.151-1.434-0.245
						l-1.038-1.189l0.622-1.321L804.994,340.98z"/>
				</g>
			</g>
		</g>
		<path opacity="0.3" d="M849.721,353.493c-2.359,5.171-32.743,34.177-48.766,39.272c-16.003,5.096-48.746,18.929-13.815,17.476
			c34.914-1.472,49.483-10.926,44.368-1.472c-5.077,9.473-20.363,15.286-12.361,17.476c8.003,2.189,23.289-6.549,18.193,2.189
			c-5.076,8.719,2.171,23.986,7.285,37.103c5.096,13.097,15.287,31.309,15.287,31.309s26.213-77.734,25.458-101.079
			c-2.906-5.908-10.19-14.626-15.286-24.1c-5.095-9.455,9.455-26.194,20.382-42.198c-23.307,14.57-38.555,39.292-24.024,18.929
			c14.55-20.382,10.926-41.49,2.925-24.76c-8.021,16.739,4.36,2.926-1.453,13.834c-5.813,10.926-13.116,9.473-10.927-1.453
			C859.176,325.11,856.269,338.924,849.721,353.493z"/>
		<g>
			<g>
				<g>
					<path fill="#E7C6A5" d="M805.333,463.348c0,0-8.02-5.095,6.53-13.815c14.569-8.738,18.212-17.476,28.384-9.473
						c10.191,8.002,20.382,17.475,20.382,17.475s29.837-5.114,46.576-3.642c10.172-10.908,17.457-16.004,17.457-16.004
						l-9.474-21.834l57.504-31.29c0,0,9.455,16.003,16.739,26.194c7.265,10.191,18.91,42.934,13.097,57.485
						c-5.831,14.569-32.026,24.005-32.026,24.005s-39.292,21.118-92.417,13.834c-18.91,4.378-28.364,1.472-31.289-4.36
						c-10.173,3.642-19.646,2.925-19.646-8.002c-6.53-2.19-11.644-8.738-11.644-8.738S799.502,477.917,805.333,463.348z"/>
					<g>
						<path fill="#A8927B" d="M814.053,457.535c0,0-10.172,8.003-9.455,13.097c0-8.001-2.189-9.455-2.189-9.455L814.053,457.535z"/>
						<path fill="#A8927B" d="M808.957,480.823c0,0,13.098-2.19,19.665-9.474c-7.284,10.927-11.644,16.74-0.736,16.004
							c2.19,4.378-0.735,6.568-0.735,6.568s-9.456-2.19-11.644-8.738C813.336,483.73,808.957,480.823,808.957,480.823z"/>
						<path fill="#A8927B" d="M827.886,487.353c0,0,13.815-9.436,20.382-8.719c6.53,0.736,5.095,3.643,5.095,3.643
							s-3.642-2.906-10.926,1.453c-7.285,4.36-15.286,10.191-15.286,10.191L827.886,487.353z"/>
						<path fill="#A8927B" d="M831.509,502.639c0,0,9.474-4.34,11.644-5.794c2.19-1.472,23.289,10.908,39.311-4.397
							c10.191,2.926,74.941,4.397,102.589-10.889c-7.286,12.361-30.573,16.003-49.464,18.91c-18.929,2.906-32.025-4.378-41.481-2.19
							c-9.473,2.19-10.19,5.813-7.285,5.813c2.906,0,26.912,2.925,32.007,2.19c5.114-0.718-29.101,2.189-40.745,0
							c-12.361,3.642-29.101,1.472-31.289-4.36C842.436,505.564,831.509,502.639,831.509,502.639z"/>
					</g>
					<path fill="#FFFFFF" d="M913.678,424.962c0,0,43.764-35.65,63.222-39.727c-5.661-14.588-12.984-22.684-12.984-22.684
						s-47.823,21.061-65.657,44.575C910.433,416.866,913.678,424.962,913.678,424.962z"/>
				</g>
				<path fill="#A8927B" d="M893.731,457.176c7.643,0,15.268,0.849,15.268,0.849s14.417-11.021,39.027-16.947
					c-11.87-1.717-26.307,1.679-27.138,4.227c-0.849,2.548,12.72-10.172,19.495-14.418c6.794-4.227-11.814-16.475-11.814-16.475
					l-6.85,8.002c0,0,2.547,2.642,2.547,15.268c0,12.7-17.06,16.211-17.06,16.211L893.731,457.176z"/>
			</g>
			<path opacity="0.3" d="M929.134,413.827c0,0-27.873-6.831-29.572-10.229c-1.699-3.396,0,2.265,0,2.265l22.156,16.551
				L929.134,413.827z"/>
		</g>
		<path opacity="0.2" d="M498.152,724.236c0,0-5.85-5.944,21.495-21.703c27.365-15.739,81.848-24.458,76.319-24.911
			c-5.511-0.472-44.293,3.19-51.201,3.812c-42.688,3.756-2.226-11.983,22.873-17.872c25.119-5.888,47.407-9.077,23.76-10.04
			c-23.608-0.962-52.313,1.548-52.313,1.548s32.932-10.625,40.726-11.87c7.775-1.246,0.226,3.925-10.059-10.399
			c-10.286-14.324-4.152-43.745-4.152-43.745s-5.397,24.986-19.174,44.67C532.65,653.39,510.664,696.777,498.152,724.236z"/>
		<path opacity="0.3" d="M821.337,255.245c2.057-5.142-37.103,64.769-49.483,77.13c-12.381,12.399,8.738-15.268,15.286-31.276
			c6.53-16.003,40.01-50.205,6.53-16.003c-33.46,34.191-57.484,46.562-34.914,25.463
			C781.329,289.455,818.431,262.539,821.337,255.245z"/>
	</g>
	<g>
		<radialGradient id="SVGID_2_" cx="415.0095" cy="973.3507" r="125.8254" gradientUnits="userSpaceOnUse">
			<stop  offset="0" style="stop-color:#FFFFFF"/>
			<stop  offset="0.1879" style="stop-color:#F6F6F6"/>
			<stop  offset="0.5629" style="stop-color:#EAEAEA"/>
			<stop  offset="1" style="stop-color:#E0E0E0"/>
		</radialGradient>
		<path fill="url(#SVGID_2_)" d="M459.05,1116.021c38.423-22.778,51.332-72.016,28.818-109.987
			c-22.515-37.952-71.903-50.276-110.307-27.516c-38.424,22.798-51.314,72.035-28.819,109.987
			C371.256,1126.476,420.644,1138.781,459.05,1116.021z"/>
		
			<linearGradient id="SVGID_3_" gradientUnits="userSpaceOnUse" x1="-1301.5515" y1="492.8976" x2="-1252.9615" y2="492.8976" gradientTransform="matrix(0.51 0.8602 -0.8602 0.51 1446.3055 1932.2152)">
			<stop  offset="0" style="stop-color:#003A67"/>
			<stop  offset="1" style="stop-color:#00132E"/>
		</linearGradient>
		<path fill="url(#SVGID_3_)" d="M341.985,1073.804c0,0,2.265,1.831,9.833,1.849c7.548,0.019,19.684,1.699,29.893,8.21
			c12.041,7.699,11.513,11.247,7.058,12.795c-5.831,2.019-24.911,3.793-36.046-2.473c-0.377,0.471,1.17,1.679,1.17,1.679
			s10.739,5.435,20.156,5.681c9.417,0.245,21.967-1.377,24.005-5.095c2.038-3.718,1.755-5.284-4.435-9.946
			c-6.209-4.661-22.213-11.983-28.573-12.21C358.706,1074.087,341.985,1073.804,341.985,1073.804z"/>
		<path fill="#104E8B" d="M376.012,1078.938c0,0,13.248,6.964,18.174,12.135c1.566,1.735,3.34,5.17-3.001,6.529
			c-6.341,1.378-22.099,4.756-36.725-2.717c7.625,4.34,16.513,7.285,29.271,6.473c12.777-0.812,18.834-1.095,18.948-5.133
			c0.131-4.039-7.021-10.947-14.739-14.551C380.239,1078.013,376.012,1078.938,376.012,1078.938z"/>
		
			<linearGradient id="SVGID_4_" gradientUnits="userSpaceOnUse" x1="-1279.7975" y1="497.6554" x2="-1253.2493" y2="465.3761" gradientTransform="matrix(0.51 0.8602 -0.8602 0.51 1446.3055 1932.2152)">
			<stop  offset="0" style="stop-color:#0089A8"/>
			<stop  offset="0.2485" style="stop-color:#00A6CC"/>
			<stop  offset="1" style="stop-color:#6DC6DA"/>
		</linearGradient>
		<path fill="url(#SVGID_4_)" d="M341.344,1072.068c0.188,0.283,0.396,2.679,6.209,2.66c5.831,0,19.25-1.075,34.328,6.945
			c15.079,8.001,18.287,11.153,17.816,14.191c-0.642,4.096-31.272,9.814-48.502-3.151c2.36,3.774,5.266,7.057,5.266,7.057
			s22.608,11.777,47.746,4.152c9.039-3.755,9.435-5.737,9.039-7.738c-0.396-2.018-6.36-9.19-11.059-12.643
			c-4.699-3.454-23.119-14.588-30.988-16.382c-10.947-2.509-25.61,2.001-25.912,2.152c-0.283,0.188-4.699-0.095-4.699-0.095
			L341.344,1072.068z"/>
		
			<linearGradient id="SVGID_5_" gradientUnits="userSpaceOnUse" x1="-1321.8397" y1="371.1682" x2="-1283.2079" y2="371.1682" gradientTransform="matrix(0.51 0.8602 -0.8602 0.51 1446.3055 1932.2152)">
			<stop  offset="0" style="stop-color:#003A67"/>
			<stop  offset="1" style="stop-color:#00132E"/>
		</linearGradient>
		<path fill="url(#SVGID_5_)" d="M475.789,995.636c0,0-11.286-5.209-22.194-3.095c-5.322,1.057-6.945,2.51-2.245,6.435
			c4.661,3.926,11.247,7.549,11.247,7.549c4.813,2.963,16.834,7.115,16.834,7.115s-16.306-1.321-27.817-9.342
			c-11.493-8.002-11.568-15.569-2.226-16.343C458.728,987.201,475.789,995.636,475.789,995.636"/>
		<path fill="#798D84" d="M456.747,1104.056c0,0-7.096,4.831-4.813,8.964c2.284,4.152,8.625,1.473,11.72-0.094
			s3.322-2.756,3.322-2.756L456.747,1104.056z"/>
		
			<linearGradient id="SVGID_6_" gradientUnits="userSpaceOnUse" x1="-1217.7959" y1="428.1707" x2="-1205.8473" y2="428.1707" gradientTransform="matrix(0.51 0.8602 -0.8602 0.51 1446.3055 1932.2152)">
			<stop  offset="0" style="stop-color:#003A67"/>
			<stop  offset="1" style="stop-color:#00132E"/>
		</linearGradient>
		<path fill="url(#SVGID_6_)" d="M461.955,1100.055c0,0-10.36,5.945-6.888,11.305c0,0,1.227,3.453,9.456,1.056
			c2.416-2,2.717-2.057,2.717-2.057S461.729,1099.81,461.955,1100.055z"/>
		
			<linearGradient id="SVGID_7_" gradientUnits="userSpaceOnUse" x1="-1335.6067" y1="464.357" x2="-1235.7937" y2="466.1393" gradientTransform="matrix(0.51 0.8602 -0.8602 0.51 1446.3055 1932.2152)">
			<stop  offset="0" style="stop-color:#7CBA44"/>
			<stop  offset="1" style="stop-color:#3C962D"/>
		</linearGradient>
		<path fill="url(#SVGID_7_)" d="M456.162,1083.183c0,0-3.567,7.172-12.852,3.793c-9.303-3.378-14.833-18.098-19.381-25.741
			c-4.51-7.644-20.778-35.517-27.516-41.293c-6.756-5.794-16.739,5.304-11.285,27.213c3.151,12.72,13.097,22.496,21.268,30.668
			c8.134,8.134,15.4,16.475,8.379,23.137c-7.039,6.699-21.288,9.455-36.14,7.398c-7.191-1.17-14.494-2.529-18.155-4.718
			c-2.661-2.679-5.152-5.057-5.341-6.398c3.322,2.548,9.436,6.775,23.873,7.229c14.438,0.452,28.516-1.057,30.894-3.53
			c2.378-2.453,3.34-5.964-0.226-11.002c-3.567-5.077-10.248-7.682-16.174-11.871c-5.907-4.17-15.494-13.417-16.815-15.437
			c-1.34-2-7.342-28.233-6.473-31.668c0.887-3.434,8.115-20.306,10.361-23.892c2.226-3.586,15.324-7.643,15.324-7.643
			s9.889,10.191,10.361,11.229c0.49,1.038,26.119,45.161,26.119,45.161l16.173,24.836L456.162,1083.183z"/>
		<path fill="none" d="M471.976,994.277c0,0-18.569-5.681-23.646-0.756c-5.058,4.926,24.477,20.061,39.272,22.835l-0.792,1.661
			l-30.252-9.417l-17.343-12.04l1.473-7.492l12.002-0.925L471.976,994.277z"/>
		
			<linearGradient id="SVGID_8_" gradientUnits="userSpaceOnUse" x1="-1263.5739" y1="383.0465" x2="-1236.3995" y2="383.0465" gradientTransform="matrix(0.51 0.8602 -0.8602 0.51 1446.3055 1932.2152)">
			<stop  offset="0" style="stop-color:#003A67"/>
			<stop  offset="1" style="stop-color:#00132E"/>
		</linearGradient>
		<path fill="url(#SVGID_8_)" d="M465.409,1076.371c0,0,7.662-10.757,13.758-22.93c6.057-12.172,10.738-18.777,14.191-18.929
			c0,0,1.906-0.529,2.36,3.492c0.452,4.02,0.396,9.643-1.586,17.796c3.17-8.379,4.077-16.192,2.265-21.477
			c-1.812-5.285-4.416-6.36-7.285-3.208c-2.849,3.19-10.417,14.324-11.644,17.985
			C476.26,1052.781,465.409,1076.371,465.409,1076.371z"/>
		
			<linearGradient id="SVGID_9_" gradientUnits="userSpaceOnUse" x1="-1220.863" y1="407.71" x2="-1208.0334" y2="407.71" gradientTransform="matrix(0.51 0.8602 -0.8602 0.51 1446.3055 1932.2152)">
			<stop  offset="0" style="stop-color:#003A67"/>
			<stop  offset="1" style="stop-color:#00132E"/>
		</linearGradient>
		<path fill="url(#SVGID_9_)" d="M482.375,1085.788c-1.416,2.396-13.72,10.738-14.381,11.965c-0.66,1.188-3.869,8.303-3.472,8.53
			c0.396,0.208,5.831-0.435,6.416-0.416c0.566,0.038,5.435-2.774,7.455-6.152c0.17-0.283-5.416,3.661-6.869,2.151
			c-1.453-1.529,4.794-7.322,7.756-10.077c2.925-2.736,5.794-7.001,7.077-9.776"/>
		
			<linearGradient id="SVGID_10_" gradientUnits="userSpaceOnUse" x1="-1347.1754" y1="468.2024" x2="-1353.8386" y2="429.5559" gradientTransform="matrix(0.51 0.8602 -0.8602 0.51 1446.3055 1932.2152)">
			<stop  offset="0" style="stop-color:#00A6CC"/>
			<stop  offset="1" style="stop-color:#6DC6DA"/>
		</linearGradient>
		<path fill="url(#SVGID_10_)" d="M362.027,990.484c0,0,5.134-3.133,6.342-3.51c1.208-0.396,4.491-1.226,0.943,1.774
			c-3.547,2.982-29.232,29.837-30.346,55.446c1.906-8.229,5.454-22.628,19.703-39.179c6.454-7.039,15.286-14.589,22.628-19.608
			c2-1.849,4.586-3.85,3.17-5.661c-1.396-1.812-7.681,0.131-10.455,1.434C371.256,982.501,365.066,987.597,362.027,990.484z"/>
		
			<linearGradient id="SVGID_11_" gradientUnits="userSpaceOnUse" x1="-1263.0581" y1="380.5726" x2="-1324.5425" y2="509.4825" gradientTransform="matrix(0.51 0.8602 -0.8602 0.51 1446.3055 1932.2152)">
			<stop  offset="0" style="stop-color:#003A67"/>
			<stop  offset="1" style="stop-color:#00132E"/>
		</linearGradient>
		<path fill="url(#SVGID_11_)" d="M438.667,1076.013c-0.208-0.34-25.119-46.105-29.988-55.088
			c-4.869-8.946-10.512-19.024-17.911-18.212c-7.341,0.849-12.625,10.286-15.135,22.534c-2.509,12.229-1.076,22.797,14.531,40.367
			c0,0,7.644,8.794,16.986,16.343c3.264,2.736,9.342,8.983,8.851,14.682c-0.378,2.774-5.775,11.625-32.8,10.342
			c6.171-0.207,12.324-0.868,14.947-1.547c2.604-0.623,2.604-1.17-1.982-0.699c-4.586,0.529-28.855,3.152-41.028-7.492
			c2.68,1.869,12.739,6.775,29.12,6.681c10.946-0.056,15.476-0.83,20.25-2.699c0,0,12.268-2.699,0.661-12.682
			c-11.55-10.002-33.763-19.777-49.294-18.117c-0.094-0.49,2.623-2.113,12.644-0.169c3.567,0.773,6.625,1.264,6.625,1.264
			s-2.775-2.434-11.89-3.038c-9.116-0.586-12.173,0.792-15.155,2.113c-2.982,1.321-5.416,1.887-7.228-1.151l-0.831-2.718
			l15.796-19.004l10.361-22.325l9.926-14.645l9.87-10.512c0,0,6.926-1.774,7.398-1.718c0.473,0.057,7.832,3.114,7.832,3.114
			l7.53,8.625l21.363,38.423l11.946,27.063l9.153,1.812c0,0,6.869-9.757,6.794-10.266c-0.094-0.491,4.756-15.343,4.756-15.343
			l-6.303-22.778l-8.361-11.304l-18.343-17.287c0,0-4.247-6.02-3.925-5.869c0.301,0.132,0.811-6.473,0.811-6.473l5.662-3.36
			l11.078-2.038l3.17,0.453c0,0,23.194,2.66,35.498,14.777c1.359,1.963,1.359,1.963,1.359,1.963s-10.152-11.814-37.045-13.06
			c-15.174,0.227-15.287,3.964-14.872,6.152c0.415,2.19,3.623,8.04,26.402,19.024c10.833,5.001,20.835,7.851,31.403,8.455
			c3.17,0.321,5.756,1.679,5.756,1.679l1.095,4.453c0,0-2-5.246-5.888-1.151c-3.906,4.077-9.625,12.757-16.399,27.875
			c-6.795,15.135-10.852,27.855-21.118,31.365C444.273,1087.751,438.667,1076.013,438.667,1076.013z"/>
		
			<linearGradient id="SVGID_12_" gradientUnits="userSpaceOnUse" x1="-1242.3069" y1="476.1733" x2="-1207.571" y2="476.1733" gradientTransform="matrix(0.51 0.8602 -0.8602 0.51 1446.3055 1932.2152)">
			<stop  offset="0" style="stop-color:#7CBA44"/>
			<stop  offset="1" style="stop-color:#3C962D"/>
		</linearGradient>
		<path fill="url(#SVGID_12_)" d="M442.744,1123.324c0,0-7.286-1.094-11.796-3.321c-4.509-2.227-11.493-3.51-20.985-1.473
			c-9.512,2.077-20.948,4.209-28.742,0.887c9.342,3.718,12.663,4.397,12.663,4.397s17.438-2.774,22.212-4.303
			c4.794-1.509,8.738-1.566,12.456,0.434c3.718,2.039,8.549,4.869,8.549,4.869L442.744,1123.324z"/>
		
			<linearGradient id="SVGID_13_" gradientUnits="userSpaceOnUse" x1="-1234.3217" y1="475.3965" x2="-1209.0389" y2="475.3965" gradientTransform="matrix(0.51 0.8602 -0.8602 0.51 1446.3055 1932.2152)">
			<stop  offset="0" style="stop-color:#003A67"/>
			<stop  offset="1" style="stop-color:#00132E"/>
		</linearGradient>
		<path fill="url(#SVGID_13_)" d="M401.451,1126.099c0,0,11.983-6.832,19.438-6.096c7.455,0.717,12.927,5.699,12.927,5.699
			l3.756-1.018c0,0-5.831-3.831-8.643-5.209c-2.813-1.378-8.492-1.586-11.682-0.905c-3.152,0.698-26.195,4.303-26.195,4.303
			L401.451,1126.099z"/>
		
			<linearGradient id="SVGID_14_" gradientUnits="userSpaceOnUse" x1="-1313.1248" y1="380.8071" x2="-1320.4994" y2="388.1816" gradientTransform="matrix(0.51 0.8602 -0.8602 0.51 1446.3055 1932.2152)">
			<stop  offset="0" style="stop-color:#22739B"/>
			<stop  offset="1" style="stop-color:#035091"/>
		</linearGradient>
		<path fill="url(#SVGID_14_)" d="M463.862,991.88c-0.321-0.339-14.003-1.755-16.89,1c-2.85,2.756,0.434,5.435,8.303,10.437
			c7.87,5.001,22.59,9.927,30.951,12.399c6.171,1.756,7.171,2.095,7.171,2.095l-0.792,0.869c0,0-23.307-5.775-25.855-6.775
			c-2.586-1-20.099-7.964-24.175-12.833c-4.077-4.869-10.456-7.322-3.492-9.474c6.945-2.114,16.476-1.661,19.703-0.944
			C462.012,989.409,463.862,991.88,463.862,991.88z"/>
		
			<linearGradient id="SVGID_15_" gradientUnits="userSpaceOnUse" x1="-1364.9153" y1="431.3518" x2="-1237.5377" y2="431.3518" gradientTransform="matrix(0.51 0.8602 -0.8602 0.51 1446.3055 1932.2152)">
			<stop  offset="0" style="stop-color:#A72F06"/>
			<stop  offset="0.6121" style="stop-color:#E63B11"/>
			<stop  offset="1" style="stop-color:#FDD08F"/>
		</linearGradient>
		<path fill="url(#SVGID_15_)" d="M431.421,983.538c0,0-17.551,5.625,1.132,21.798c11.229,10.436,24.59,24.062,25.42,43.614
			c1,5.964-6.095,26.402-14.003,15.909c0,0-17.268-27.328-19.268-30.385c-2.019-3.038-9.361-16.664-16.608-27.289
			c-2.812-4.039-15.154-20.571-30.308-1.264c-15.117,19.325-17.816,29.515-21.741,36.989c-6.7,12.607-17.626,18.042-14.173,3.529
			c0,0,2.849-22.59,24.364-45.067c7.775-7.548,21.834-19.06,21.834-19.06s9.87-9.021-5-6.304c-4.473,2.416-7.134,4.001-7.134,4.001
			s7.718-2.679,8.964,0.17c1.265,2.849-7.643,7.718-15.419,14.229c-7.756,6.492-28.704,25.647-31.573,59.24
			c-0.396,3.624,1.019,8.455,1.019,8.455s1.113,12.229,11.191-0.301c10.096-12.531,11.87-22.005,14.872-28.007
			c2.982-5.982,8.832-19.589,16.268-27.384c7.416-7.775,14.946-9.681,22.193,0.774c0,0,6.36,8.587,14.532,26.629
			c8.322,18.4,19.589,38.518,19.589,38.518s6.944,14.947,16.286,9.53c0,0,13.834-6.115,11.965-33.686
			c-0.717-14.928-7.378-26.647-19.457-36.027c-8.587-7.379-28.422-17.551-15.909-25.629c0.415,0.397,7.851-6.454,29.101-0.056
			c10.908,3.17,17.909,7.096,22.495,11.607c-1.17-1.736-3.925-4.851-3.925-4.851s-7.53-7.643-27.686-10.89
			C439.214,980.406,431.421,983.538,431.421,983.538z"/>
		
			<linearGradient id="SVGID_16_" gradientUnits="userSpaceOnUse" x1="-1254.1663" y1="395.0679" x2="-1206.5032" y2="395.0679" gradientTransform="matrix(0.51 0.8602 -0.8602 0.51 1446.3055 1932.2152)">
			<stop  offset="0" style="stop-color:#003A67"/>
			<stop  offset="1" style="stop-color:#00132E"/>
		</linearGradient>
		<path fill="url(#SVGID_16_)" d="M473.807,1091.525c-9.361,7.926-7.983,11.494-7.285,13.155c0.679,1.66,7.172-0.566,10.078-2.435
			c-3.964,5.02-9.625,7.926-9.625,7.926s-8.191,1.604-9.814-1.566c-1.604-3.208,5.455-9.757,15.796-18.25
			c28.667-23.986,24.572-54.162,24.628-53.71c2.284,15.438-3.586,27.648-5.416,31.536
			C492.17,1068.18,485.81,1081.372,473.807,1091.525z"/>
		<path fill="#FFFFFF" d="M497.057,1041.816c0,0,1.322,21.382-20.684,45.331c0,0,20.722-18.947,21.288-45.142
			C496.473,1039.759,497.057,1041.816,497.057,1041.816z"/>
		
			<linearGradient id="SVGID_17_" gradientUnits="userSpaceOnUse" x1="-1243.4143" y1="363.7429" x2="-1250.5436" y2="380.6752" gradientTransform="matrix(0.51 0.8602 -0.8602 0.51 1446.3055 1932.2152)">
			<stop  offset="0" style="stop-color:#F4F7E4"/>
			<stop  offset="1" style="stop-color:#3C962D"/>
		</linearGradient>
		<path fill="url(#SVGID_17_)" d="M496.831,1028.908c0,0-1.661-7.285-5.831-4.077c-4.17,3.208-10.399,13.116-20.929,37.254
			c-1.473,3.982-4.718,11.946-5.926,15.89c0,0,1.982-1.887,7.285-12.116c5.322-10.266,13.644-26.119,13.644-26.119
			s1.944-3.68,5.001-6.229c3.076-2.566,5.247-3.076,6.265,2.077c0.887,4.473,0.736,11.946,0.472,14.474
			C497.605,1046.194,498.304,1037.646,496.831,1028.908z"/>
		
			<linearGradient id="SVGID_18_" gradientUnits="userSpaceOnUse" x1="-1212.8169" y1="421.2996" x2="-1217.4464" y2="391.7622" gradientTransform="matrix(0.51 0.8602 -0.8602 0.51 1446.3055 1932.2152)">
			<stop  offset="0" style="stop-color:#6DC6DA"/>
			<stop  offset="1" style="stop-color:#FFFFFF"/>
		</linearGradient>
		<path fill="url(#SVGID_18_)" d="M484.998,1079.504c0,0-5.831,6.851-11.04,11.286c-5.227,4.416-12.927,11.342-14.078,13.663
			c-1.152,2.283-0.944,5.134,3.321,5.114c3.227-0.283,6.587-1.396,6.587-1.396l4.681-3.794c0,0-6.228,2.34-7.757,0.264
			c-1.812-2.472,2.435-5.34,8.304-11.285c5.756-5.851,10.247-10.173,11.663-12.041
			C488.093,1079.466,484.281,1081.259,484.998,1079.504z"/>
		<path fill="#F28F55" d="M401.584,1125.892c0,0,9.926-6.945,18.797-5.851c8.87,1.075,13.437,5.661,13.437,5.661
			S417.794,1128.854,401.584,1125.892z"/>
		
			<linearGradient id="SVGID_19_" gradientUnits="userSpaceOnUse" x1="-1292.0116" y1="361.1716" x2="-1319.11" y2="393.3885" gradientTransform="matrix(0.51 0.8602 -0.8602 0.51 1446.3055 1932.2152)">
			<stop  offset="0" style="stop-color:#00A6CC"/>
			<stop  offset="1" style="stop-color:#6DC6DA"/>
		</linearGradient>
		<path fill="url(#SVGID_19_)" d="M483.602,1000.241c0,0-14.23-16.099-44.01-13.626c0,0-17.042,1.849-4.095,12.324
			c12.964,10.474,31.742,17.947,43.481,20.269c8.416,1.735,13.55,1.622,16.022,3.302c-0.906-2.208-1.736-4.699-1.736-4.699
			s-15.985-3.925-25.987-7.285c-10.021-3.359-24.949-11.833-25.836-17.211c-0.869-5.379,13.248-3.643,20.287-2.114
			C468.768,992.729,473.316,993.24,483.602,1000.241z"/>
	</g>
</g>
</svg>
